<svg width="201" height="186" viewBox="0 0 201 186" fill="none" xmlns="http://www.w3.org/2000/svg">
<circle cx="101.926" cy="90" r="90" fill="#FFCBBA" fill-opacity="0.3"/>
<path fill-rule="evenodd" clip-rule="evenodd" d="M110 181.311C110 183.659 112.009 185.513 114.338 185.215C138.986 182.052 160.71 169.542 175.84 151.352C177.994 148.763 176.065 145 172.697 145C171.434 145 170.244 145.577 169.432 146.545C155.644 162.97 135.965 174.285 113.649 177.236C111.588 177.508 110 179.233 110 181.311Z" fill="url(#paint0_linear_130_782)"/>
<circle cx="101.926" cy="90" r="74" fill="#CD3D0D" stroke="url(#paint1_linear_130_782)" stroke-width="8"/>
<mask id="mask0_130_782" style="mask-type:alpha" maskUnits="userSpaceOnUse" x="31" y="20" width="141" height="140">
<circle cx="101.926" cy="90" r="70" fill="#F05927"/>
</mask>
<g mask="url(#mask0_130_782)">
<circle cx="85.9263" cy="90" r="70" fill="#F05927"/>
</g>
<path fill-rule="evenodd" clip-rule="evenodd" d="M77.9263 39.0474C77.9263 36.0875 74.9122 34.1004 72.3128 35.5162C59.0884 42.7193 48.7773 54.5968 43.5988 68.9295C42.687 71.453 44.6424 74.0001 47.3255 74.0001C49.1158 74.0001 50.6826 72.8281 51.3075 71.1505C55.8108 59.0624 64.5203 49.0222 75.6564 42.8097C77.0292 42.0439 77.9263 40.6193 77.9263 39.0474Z" fill="url(#paint2_linear_130_782)"/>
<circle cx="42.9263" cy="83" r="4" fill="url(#paint3_linear_130_782)"/>
<path fill-rule="evenodd" clip-rule="evenodd" d="M171.997 89.3384C171.995 89.1299 172.09 88.9324 172.255 88.8047C172.81 88.3751 173.354 87.9443 173.889 87.5125C181.301 81.5255 186.493 75.5848 189.455 70.1576C192.391 64.7801 192.922 60.3591 191.964 56.7825C191.006 53.2059 188.335 49.6431 183.104 46.4537C177.825 43.2348 170.358 40.6858 160.945 39.2071C157.529 38.6704 153.907 38.2826 150.106 38.0502C149.286 38 148.501 37.6711 147.881 37.1326C145.163 34.7741 146.674 29.8342 150.266 30.0454C176.674 31.5981 195.813 40.2387 199.691 54.712C206.224 79.0932 166.977 110.793 112.03 125.516C69.0723 137.027 29.2367 134.753 10.7759 121.562C8.53595 119.962 8.96233 116.711 11.3465 115.335C12.8726 114.454 14.7735 114.64 16.2414 115.615C16.5814 115.841 16.9335 116.065 17.2981 116.287C22.5772 119.506 30.0435 122.055 39.4564 123.534C58.26 126.488 83.3067 124.931 109.959 117.789C134.609 111.184 155.68 101.13 170.421 90.1947C170.593 90.0678 170.798 90 171.011 90H171.339C171.704 90 172 89.7037 171.997 89.3384ZM7.56037 108.283C8.35748 107.823 8.67619 106.847 8.43796 105.958C7.47962 102.382 8.01132 97.9606 10.9466 92.5831C13.9091 87.1559 19.1006 81.2152 26.513 75.2281C28.8907 73.3077 31.466 71.4074 34.2244 69.5409C34.9023 69.0822 35.4075 68.4102 35.6691 67.6345C36.8207 64.2192 33.0115 60.7135 30.0215 62.726C8.65961 77.1037 -3.09915 93.8107 0.710555 108.029C1.22664 109.955 3.46496 110.648 5.19181 109.651L7.56037 108.283Z" fill="url(#paint4_linear_130_782)"/>
<circle cx="84.9263" cy="124.806" r="14" fill="#FFD136"/>
<path fill-rule="evenodd" clip-rule="evenodd" d="M73.4093 113.307C72.0378 110.931 68.7866 110.447 67.2941 112.748C65.1635 116.034 63.9263 119.952 63.9263 124.159C63.9263 135.757 73.3283 145.159 84.9263 145.159C96.5243 145.159 105.926 135.757 105.926 124.159C105.926 112.561 96.5243 103.159 84.9263 103.159C84.4339 103.159 83.9456 103.176 83.4617 103.209C80.7608 103.396 79.5964 106.416 80.9501 108.761L81.2327 109.25C81.9727 110.532 83.4462 111.159 84.9263 111.159C92.106 111.159 97.9263 116.979 97.9263 124.159C97.9263 131.339 92.106 137.159 84.9263 137.159C77.7466 137.159 71.9263 131.339 71.9263 124.159C71.9263 122.082 72.4133 120.119 73.2795 118.378C74.0769 116.774 74.3046 114.858 73.4093 113.307Z" fill="url(#paint5_linear_130_782)"/>
<defs>
<linearGradient id="paint0_linear_130_782" x1="143.374" y1="145" x2="143.374" y2="185.246" gradientUnits="userSpaceOnUse">
<stop stop-color="white"/>
<stop offset="1"/>
</linearGradient>
<linearGradient id="paint1_linear_130_782" x1="101.926" y1="12" x2="101.926" y2="168" gradientUnits="userSpaceOnUse">
<stop stop-color="white"/>
<stop offset="1"/>
</linearGradient>
<linearGradient id="paint2_linear_130_782" x1="60.6491" y1="35.0497" x2="60.6491" y2="74.0001" gradientUnits="userSpaceOnUse">
<stop stop-color="white"/>
<stop offset="1"/>
</linearGradient>
<linearGradient id="paint3_linear_130_782" x1="42.9263" y1="79" x2="42.9263" y2="87" gradientUnits="userSpaceOnUse">
<stop stop-color="white"/>
<stop offset="1"/>
</linearGradient>
<linearGradient id="paint4_linear_130_782" x1="100.201" y1="30.0342" x2="100.201" y2="132.949" gradientUnits="userSpaceOnUse">
<stop stop-color="white"/>
<stop offset="1"/>
</linearGradient>
<linearGradient id="paint5_linear_130_782" x1="84.9263" y1="103.159" x2="84.9263" y2="145.159" gradientUnits="userSpaceOnUse">
<stop stop-color="white"/>
<stop offset="1"/>
</linearGradient>
</defs>
</svg>
