<svg width="206" height="180" viewBox="0 0 206 180" fill="none" xmlns="http://www.w3.org/2000/svg">
<circle cx="102.368" cy="90" r="90" fill="#B341FF" fill-opacity="0.3"/>
<circle cx="102.368" cy="90" r="74" fill="#8C12DC" stroke="url(#paint0_linear_208_113)" stroke-width="8"/>
<mask id="mask0_208_113" style="mask-type:alpha" maskUnits="userSpaceOnUse" x="32" y="20" width="141" height="140">
<circle cx="102.368" cy="90" r="70" fill="#B341FF"/>
</mask>
<g mask="url(#mask0_208_113)">
<circle cx="86.3677" cy="90" r="70" fill="#B341FF"/>
</g>
<path fill-rule="evenodd" clip-rule="evenodd" d="M78.3677 39.0474C78.3677 36.0875 75.3536 34.1004 72.7542 35.5162C59.5298 42.7193 49.2187 54.5968 44.0402 68.9295C43.1284 71.453 45.0838 74.0001 47.7669 74.0001C49.5572 74.0001 51.124 72.8281 51.749 71.1505C56.2522 59.0624 64.9617 49.0222 76.0978 42.8097C77.4706 42.0439 78.3677 40.6193 78.3677 39.0474Z" fill="url(#paint1_linear_208_113)"/>
<circle cx="43.3677" cy="83" r="4" fill="url(#paint2_linear_208_113)"/>
<path fill-rule="evenodd" clip-rule="evenodd" d="M174.207 32.8115C174.06 26.6867 172.31 22.5922 169.692 19.974C167.074 17.3557 162.979 15.6057 156.854 15.459C150.673 15.311 142.933 16.8366 134.041 20.2625C131.724 21.1553 129.354 22.1677 126.939 23.2966C126.053 23.7113 125.043 23.7672 124.113 23.4631C120.813 22.3845 120.117 17.6651 123.259 16.1867C145.644 5.65182 165.211 4.17943 175.349 14.3171C193.197 32.1654 175.058 79.2423 134.834 119.466C94.61 159.69 47.5331 177.829 29.6848 159.981C20.3537 150.65 20.8587 133.33 29.2132 113.177C30.554 109.943 35.3387 110.479 36.5279 113.772C36.8546 114.677 36.8375 115.67 36.4719 116.559C36.1805 117.269 35.8998 117.974 35.6301 118.674C32.2043 127.565 30.6786 135.305 30.8267 141.487C30.9734 147.611 32.7234 151.706 35.3416 154.324C37.9599 156.943 42.0544 158.693 48.1792 158.839C54.3605 158.987 62.101 157.462 70.9922 154.036C88.7535 147.192 109.666 133.321 129.177 113.809C148.688 94.2984 162.56 73.3858 169.403 55.6245C172.829 46.7333 174.355 38.9928 174.207 32.8115Z" fill="url(#paint3_linear_208_113)"/>
<path fill-rule="evenodd" clip-rule="evenodd" d="M75.5186 129.526C74.6417 130.916 72.9909 131.624 71.3831 131.282C28.5164 122.162 -1.75187 101.752 0.0787602 80.8275C1.25375 67.3973 15.4149 56.4718 36.9893 49.962C40.297 48.964 42.9291 52.8645 41.2452 55.8814C40.7557 56.7583 39.9456 57.4236 38.9851 57.7166C37.8118 58.0744 36.6643 58.4457 35.5436 58.83C26.5305 61.9208 19.6203 65.7276 14.9803 69.8143C10.3827 73.8635 8.37104 77.836 8.04832 81.5247C7.7256 85.2134 9.01692 89.4748 12.8415 94.261C16.7013 99.0913 22.8455 104.04 31.185 108.649C42.2226 114.749 56.5128 119.926 72.895 123.425C75.6409 124.011 77.0166 127.151 75.5186 129.526ZM85.8279 128.177C86.6764 126.832 88.2353 126.114 89.8121 126.32C92.9563 126.731 96.1547 127.08 99.4007 127.364C126.889 129.769 151.825 126.953 169.83 120.779C178.843 117.688 185.753 113.881 190.393 109.795C194.991 105.745 197.003 101.773 197.325 98.0843C197.648 94.3956 196.357 90.1342 192.532 85.348C188.672 80.5177 182.528 75.5688 174.189 70.9599C173.258 70.4454 172.304 69.9376 171.328 69.4368C169.783 68.6443 168.603 67.2884 168 65.6604C166.935 62.7901 169.802 59.7743 172.556 61.1104C193.72 71.3757 206.504 84.9667 205.295 98.7815C203.095 123.927 155.372 140.292 98.7035 135.334C95.2945 135.036 91.9307 134.667 88.6197 134.232C85.7473 133.855 84.2824 130.627 85.8279 128.177Z" fill="url(#paint4_linear_208_113)"/>
<circle cx="28.3677" cy="13" r="7" fill="#F7931B"/>
<circle cx="43.3677" cy="6" r="3" fill="#FECD64"/>
<circle cx="166.368" cy="168" r="5" fill="#F7931B"/>
<circle cx="178.368" cy="155" r="6" fill="#FECD64"/>
<circle cx="163.368" cy="152" r="3" fill="#FECD64"/>
<circle cx="98.3677" cy="105" r="4" transform="rotate(-90 98.3677 105)" fill="url(#paint5_linear_208_113)"/>
<circle cx="88.3677" cy="95" r="5" transform="rotate(-90 88.3677 95)" fill="url(#paint6_linear_208_113)"/>
<circle cx="85.3677" cy="109" r="2" transform="rotate(-90 85.3677 109)" fill="url(#paint7_linear_208_113)"/>
<defs>
<linearGradient id="paint0_linear_208_113" x1="102.368" y1="12" x2="102.368" y2="168" gradientUnits="userSpaceOnUse">
<stop stop-color="white"/>
<stop offset="1"/>
</linearGradient>
<linearGradient id="paint1_linear_208_113" x1="61.0905" y1="35.0497" x2="61.0905" y2="74.0001" gradientUnits="userSpaceOnUse">
<stop stop-color="white"/>
<stop offset="1"/>
</linearGradient>
<linearGradient id="paint2_linear_208_113" x1="43.3677" y1="79" x2="43.3677" y2="87" gradientUnits="userSpaceOnUse">
<stop stop-color="white"/>
<stop offset="1"/>
</linearGradient>
<linearGradient id="paint3_linear_208_113" x1="102.517" y1="7.44922" x2="102.517" y2="166.849" gradientUnits="userSpaceOnUse">
<stop stop-color="white"/>
<stop offset="1"/>
</linearGradient>
<linearGradient id="paint4_linear_208_113" x1="102.687" y1="136.219" x2="102.687" y2="49.8028" gradientUnits="userSpaceOnUse">
<stop stop-color="white"/>
<stop offset="1"/>
</linearGradient>
<linearGradient id="paint5_linear_208_113" x1="98.3677" y1="101" x2="98.3677" y2="109" gradientUnits="userSpaceOnUse">
<stop stop-color="white"/>
<stop offset="1"/>
</linearGradient>
<linearGradient id="paint6_linear_208_113" x1="88.3677" y1="90" x2="88.3677" y2="100" gradientUnits="userSpaceOnUse">
<stop stop-color="white"/>
<stop offset="1"/>
</linearGradient>
<linearGradient id="paint7_linear_208_113" x1="85.3677" y1="107" x2="85.3677" y2="111" gradientUnits="userSpaceOnUse">
<stop stop-color="white"/>
<stop offset="1"/>
</linearGradient>
</defs>
</svg>
