<svg width="201" height="180" viewBox="0 0 201 180" fill="none" xmlns="http://www.w3.org/2000/svg">
<circle cx="101.926" cy="90" r="90" fill="#FFC240" fill-opacity="0.3"/>
<circle cx="101.926" cy="90" r="74" fill="#F7931B" stroke="url(#paint0_linear_208_149)" stroke-width="8"/>
<mask id="mask0_208_149" style="mask-type:alpha" maskUnits="userSpaceOnUse" x="31" y="20" width="141" height="140">
<circle cx="101.926" cy="90" r="70" fill="#FFC240"/>
</mask>
<g mask="url(#mask0_208_149)">
<circle cx="85.9263" cy="90" r="70" fill="#FFC240"/>
</g>
<path fill-rule="evenodd" clip-rule="evenodd" d="M77.9263 39.0474C77.9263 36.0875 74.9122 34.1004 72.3128 35.5162C59.0884 42.7193 48.7773 54.5968 43.5988 68.9295C42.687 71.453 44.6424 74.0001 47.3255 74.0001C49.1158 74.0001 50.6826 72.8281 51.3075 71.1505C55.8108 59.0624 64.5203 49.0222 75.6564 42.8097C77.0292 42.0439 77.9263 40.6193 77.9263 39.0474Z" fill="url(#paint1_linear_208_149)"/>
<circle cx="48.9263" cy="159" r="4" fill="url(#paint2_linear_208_149)"/>
<path fill-rule="evenodd" clip-rule="evenodd" d="M171.923 89.3758C171.922 89.179 172.012 88.9928 172.168 88.8724C172.752 88.4204 173.326 87.967 173.889 87.5125C181.301 81.5255 186.493 75.5848 189.455 70.1576C192.39 64.7801 192.922 60.3591 191.964 56.7825C191.005 53.2059 188.335 49.6431 183.104 46.4537C177.825 43.2348 170.358 40.6858 160.945 39.2071C157.506 38.6668 153.858 38.2774 150.029 38.0455C149.208 37.9958 148.423 37.6668 147.802 37.128C145.085 34.7701 146.593 29.8315 150.184 30.0406C176.635 31.5804 195.809 40.2239 199.691 54.712C206.224 79.0932 166.977 110.793 112.03 125.516C69.0723 137.027 29.2367 134.753 10.7759 121.562C8.53591 119.962 8.96229 116.711 11.3464 115.335C12.8726 114.454 14.7734 114.64 16.2414 115.615C16.5814 115.841 16.9335 116.065 17.2981 116.287C22.5772 119.506 30.0435 122.055 39.4564 123.534C58.26 126.488 83.3066 124.931 109.959 117.789C134.617 111.182 155.694 101.123 170.436 90.1839C170.598 90.064 170.792 90 170.993 90H171.302C171.647 90 171.927 89.7205 171.923 89.3758ZM7.56034 108.283C8.35745 107.823 8.67616 106.847 8.43793 105.958C7.47958 102.382 8.01129 97.9606 10.9466 92.583C13.9091 87.1559 19.1006 81.2152 26.513 75.2281C28.864 73.3292 31.4081 71.4502 34.1314 69.6038C34.8091 69.1444 35.3139 68.4717 35.5748 67.6956C36.7233 64.2791 32.9115 60.7771 29.9231 62.7922C8.6235 77.155 -3.09333 93.8325 0.710525 108.029C1.22661 109.955 3.46493 110.648 5.19177 109.651L7.56034 108.283Z" fill="url(#paint3_linear_208_149)"/>
<path fill-rule="evenodd" clip-rule="evenodd" d="M165.246 122.999C164.128 123.229 163.163 123.933 162.594 124.922C160.935 127.802 163.194 131.572 166.452 130.918C180.872 128.021 191.7 122.411 196.931 114.404C198.561 111.91 196.465 109 193.486 109C191.858 109 190.397 109.924 189.387 111.2C187.927 113.046 185.874 114.84 183.104 116.529C178.656 119.241 172.655 121.478 165.246 122.999ZM196.642 104C194.333 104 192.534 101.994 192.085 99.7299C191.669 97.6284 190.823 95.3307 189.455 92.8254C186.493 87.3982 181.301 81.4575 173.889 75.4704C159.081 63.5104 136.612 52.3355 109.959 45.1939C83.3066 38.0524 58.26 36.4954 39.4564 39.4494C30.0435 40.9281 22.5772 43.4771 17.2981 46.696C12.0672 49.8854 9.39628 53.4482 8.43793 57.0248C7.47958 60.6014 8.01129 65.0224 10.9466 70.3999C13.9091 75.8271 19.1006 81.7678 26.513 87.7548C27.7652 88.7662 29.0722 89.772 30.4319 90.7703C31.3827 91.4683 31.9631 92.5618 32.0262 93.7396C32.2006 96.998 28.5827 99.3264 25.9475 97.402C7.1854 83.7005 -2.84954 68.2406 0.710525 54.9543C7.24345 30.5731 57.0828 22.7435 112.03 37.4665C161.139 50.6254 197.708 77.3459 200.259 100.282C200.491 102.36 198.733 104 196.642 104Z" fill="url(#paint4_linear_208_149)"/>
<circle cx="84.9263" cy="124.806" r="14" fill="#A8E5FE"/>
<path fill-rule="evenodd" clip-rule="evenodd" d="M74.9263 114.053C74.9263 110.279 70.9116 108.073 68.5478 111.015C65.6564 114.613 63.9263 119.184 63.9263 124.159C63.9263 135.757 73.3283 145.159 84.9263 145.159C96.5243 145.159 105.926 135.757 105.926 124.159C105.926 114.803 99.8075 106.876 91.3532 104.161C89.0414 103.418 86.9263 105.352 86.9263 107.78C86.9263 109.812 88.4507 111.478 90.3008 112.319C94.7987 114.364 97.9263 118.896 97.9263 124.159C97.9263 131.339 92.106 137.159 84.9263 137.159C77.7466 137.159 71.9263 131.339 71.9263 124.159C71.9263 121.646 72.6395 119.299 73.8746 117.31C74.488 116.323 74.9263 115.215 74.9263 114.053Z" fill="url(#paint5_linear_208_149)"/>
<circle cx="33.9263" cy="89" r="7" fill="#F7931B"/>
<circle cx="48.9263" cy="82" r="3" fill="#FECD64"/>
<circle cx="165.926" cy="168" r="5" fill="#F7931B"/>
<circle cx="177.926" cy="155" r="6" fill="#FECD64"/>
<circle cx="162.926" cy="152" r="3" fill="#FECD64"/>
<defs>
<linearGradient id="paint0_linear_208_149" x1="101.926" y1="12" x2="101.926" y2="168" gradientUnits="userSpaceOnUse">
<stop stop-color="white"/>
<stop offset="1"/>
</linearGradient>
<linearGradient id="paint1_linear_208_149" x1="60.6491" y1="35.0497" x2="60.6491" y2="74.0001" gradientUnits="userSpaceOnUse">
<stop stop-color="white"/>
<stop offset="1"/>
</linearGradient>
<linearGradient id="paint2_linear_208_149" x1="48.9263" y1="155" x2="48.9263" y2="163" gradientUnits="userSpaceOnUse">
<stop stop-color="white"/>
<stop offset="1"/>
</linearGradient>
<linearGradient id="paint3_linear_208_149" x1="100.201" y1="30.0342" x2="100.201" y2="132.949" gradientUnits="userSpaceOnUse">
<stop stop-color="white"/>
<stop offset="1"/>
</linearGradient>
<linearGradient id="paint4_linear_208_149" x1="100.14" y1="130.993" x2="100.14" y2="30.0342" gradientUnits="userSpaceOnUse">
<stop stop-color="white"/>
<stop offset="1"/>
</linearGradient>
<linearGradient id="paint5_linear_208_149" x1="84.9263" y1="104" x2="84.9263" y2="145.159" gradientUnits="userSpaceOnUse">
<stop stop-color="white"/>
<stop offset="1"/>
</linearGradient>
</defs>
</svg>
